<svg xmlns="http://www.w3.org/2000/svg" viewBox="0 0 30 20">
  <rect width="30" height="20" fill="#FFFFFF"/>
  <path d="M15,4.5 A5.5,5.5 0 0 1 15,15.5 L15,10 Z" fill="#CD2E3A"/>
  <path d="M15,4.5 A5.5,5.5 0 0 0 15,15.5 L15,10 Z" fill="#0047A0"/>
  <circle cx="15" cy="6.9" r="1.5" fill="#0047A0"/>
  <circle cx="15" cy="13.1" r="1.5" fill="#CD2E3A"/>
  <g stroke="#000000" stroke-width="0.9" stroke-linecap="square">
    <line x1="2.5" y1="2" x2="5.5" y2="2"/>
    <line x1="2.5" y1="3.4" x2="5.5" y2="3.4"/>
    <line x1="3.4" y1="4.8" x2="4.6" y2="4.8"/>
    <line x1="2.5" y1="16.9" x2="5.5" y2="16.9"/>
    <line x1="2.5" y1="15.5" x2="5.5" y2="15.5"/>
    <line x1="3.4" y1="14.1" x2="4.6" y2="14.1"/>
    <line x1="24.5" y1="2" x2="27.5" y2="2"/>
    <line x1="24.5" y1="3.4" x2="27.5" y2="3.4"/>
    <line x1="25.4" y1="4.8" x2="26.6" y2="4.8"/>
    <line x1="24.5" y1="16.9" x2="27.5" y2="16.9"/>
    <line x1="24.5" y1="15.5" x2="27.5" y2="15.5"/>
    <line x1="25.4" y1="14.1" x2="26.6" y2="14.1"/>
  </g>
</svg>